<svg width="16" height="17" viewBox="0 0 16 17" fill="none" xmlns="http://www.w3.org/2000/svg">
<path d="M14.5 8.7167C14.5 8.44056 14.2761 8.2167 14 8.2167C13.7239 8.2167 13.5 8.44056 13.5 8.7167H14.5ZM3 14.0085L2.99575 14.5085H3V14.0085ZM3 2.66846V3.16846V2.66846ZM8 3.16846C8.27614 3.16846 8.5 2.9446 8.5 2.66846C8.5 2.39231 8.27614 2.16846 8 2.16846V3.16846ZM13.5 8.7167V13H14.5V8.7167H13.5ZM13.5 13C13.5 13.2621 13.4993 13.4171 13.4874 13.5245C13.4751 13.6356 13.4597 13.5885 13.5185 13.5287C13.5785 13.4676 13.628 13.4823 13.5201 13.4949C13.4151 13.5072 13.2613 13.5085 13 13.5085V14.5085C13.2387 14.5085 13.4599 14.5087 13.6361 14.4882C13.8095 14.4679 14.0465 14.418 14.2315 14.2298C14.4153 14.0429 14.4624 13.8061 14.4814 13.6344C14.5007 13.4589 14.5 13.2379 14.5 13H13.5ZM13 13.5085H3V14.5085H13V13.5085ZM3.00425 13.5085C2.74206 13.5063 2.58775 13.5042 2.48125 13.4915C2.37147 13.4784 2.42016 13.4636 2.48004 13.524C2.53994 13.5844 2.52477 13.633 2.51257 13.5231C2.50074 13.4165 2.5 13.2622 2.5 13H1.5C1.5 13.2378 1.49926 13.4585 1.51868 13.6334C1.53773 13.8051 1.58506 14.0417 1.76996 14.2281C1.95484 14.4146 2.19103 14.4639 2.3625 14.4844C2.53725 14.5053 2.75794 14.5065 2.99575 14.5085L3.00425 13.5085ZM2 13C2.5 13 2.5 13 2.5 12.9999C2.5 12.9998 2.5 12.9997 2.5 12.9996C2.5 12.9995 2.5 12.9993 2.5 12.9991C2.5 12.9989 2.5 12.9987 2.5 12.9984C2.5 12.9982 2.5 12.9979 2.5 12.9975C2.5 12.9972 2.5 12.9968 2.5 12.9965C2.5 12.9961 2.5 12.9956 2.5 12.9952C2.5 12.9947 2.5 12.9942 2.5 12.9937C2.5 12.9932 2.5 12.9926 2.5 12.9921C2.5 12.9915 2.5 12.9909 2.5 12.9902C2.5 12.9896 2.5 12.9889 2.5 12.9882C2.5 12.9874 2.5 12.9867 2.5 12.9859C2.5 12.9852 2.5 12.9843 2.5 12.9835C2.5 12.9827 2.5 12.9818 2.5 12.9809C2.5 12.98 2.5 12.9791 2.5 12.9781C2.5 12.9771 2.5 12.9761 2.5 12.9751C2.5 12.9741 2.5 12.973 2.5 12.9719C2.5 12.9708 2.5 12.9697 2.5 12.9686C2.5 12.9674 2.5 12.9662 2.5 12.965C2.5 12.9638 2.5 12.9626 2.5 12.9613C2.5 12.96 2.5 12.9587 2.5 12.9574C2.5 12.9561 2.5 12.9547 2.5 12.9533C2.5 12.9519 2.5 12.9505 2.5 12.949C2.5 12.9476 2.5 12.9461 2.5 12.9446C2.5 12.943 2.5 12.9415 2.5 12.9399C2.5 12.9383 2.5 12.9367 2.5 12.9351C2.5 12.9335 2.5 12.9318 2.5 12.9301C2.5 12.9284 2.5 12.9267 2.5 12.9249C2.5 12.9232 2.5 12.9214 2.5 12.9196C2.5 12.9178 2.5 12.9159 2.5 12.914C2.5 12.9122 2.5 12.9103 2.5 12.9083C2.5 12.9064 2.5 12.9044 2.5 12.9024C2.5 12.9005 2.5 12.8984 2.5 12.8964C2.5 12.8943 2.5 12.8923 2.5 12.8902C2.5 12.888 2.5 12.8859 2.5 12.8837C2.5 12.8816 2.5 12.8794 2.5 12.8772C2.5 12.8749 2.5 12.8727 2.5 12.8704C2.5 12.8681 2.5 12.8658 2.5 12.8635C2.5 12.8612 2.5 12.8588 2.5 12.8564C2.5 12.854 2.5 12.8516 2.5 12.8491C2.5 12.8467 2.5 12.8442 2.5 12.8417C2.5 12.8392 2.5 12.8367 2.5 12.8341C2.5 12.8316 2.5 12.829 2.5 12.8264C2.5 12.8237 2.5 12.8211 2.5 12.8184C2.5 12.8157 2.5 12.813 2.5 12.8103C2.5 12.8076 2.5 12.8048 2.5 12.8021C2.5 12.7993 2.5 12.7965 2.5 12.7936C2.5 12.7908 2.5 12.7879 2.5 12.785C2.5 12.7821 2.5 12.7792 2.5 12.7763C2.5 12.7733 2.5 12.7704 2.5 12.7674C2.5 12.7644 2.5 12.7613 2.5 12.7583C2.5 12.7552 2.5 12.7522 2.5 12.749C2.5 12.7459 2.5 12.7428 2.5 12.7396C2.5 12.7365 2.5 12.7333 2.5 12.7301C2.5 12.7269 2.5 12.7236 2.5 12.7204C2.5 12.7171 2.5 12.7138 2.5 12.7105C2.5 12.7072 2.5 12.7038 2.5 12.7005C2.5 12.6971 2.5 12.6937 2.5 12.6903C2.5 12.6869 2.5 12.6834 2.5 12.6799C2.5 12.6765 2.5 12.673 2.5 12.6694C2.5 12.6659 2.5 12.6624 2.5 12.6588C2.5 12.6552 2.5 12.6516 2.5 12.648C2.5 12.6443 2.5 12.6407 2.5 12.637C2.5 12.6333 2.5 12.6296 2.5 12.6259C2.5 12.6222 2.5 12.6184 2.5 12.6146C2.5 12.6109 2.5 12.6071 2.5 12.6032C2.5 12.5994 2.5 12.5955 2.5 12.5917C2.5 12.5878 2.5 12.5839 2.5 12.58C2.5 12.576 2.5 12.5721 2.5 12.5681C2.5 12.5641 2.5 12.5601 2.5 12.5561C2.5 12.5521 2.5 12.548 2.5 12.5439C2.5 12.5399 2.5 12.5358 2.5 12.5316C2.5 12.5275 2.5 12.5234 2.5 12.5192C2.5 12.515 2.5 12.5108 2.5 12.5066C2.5 12.5024 2.5 12.4981 2.5 12.4939C2.5 12.4896 2.5 12.4853 2.5 12.481C2.5 12.4767 2.5 12.4723 2.5 12.468C2.5 12.4636 2.5 12.4592 2.5 12.4548C2.5 12.4504 2.5 12.446 2.5 12.4415C2.5 12.4371 2.5 12.4326 2.5 12.4281C2.5 12.4236 2.5 12.419 2.5 12.4145C2.5 12.4099 2.5 12.4054 2.5 12.4008C2.5 12.3962 2.5 12.3916 2.5 12.3869C2.5 12.3823 2.5 12.3776 2.5 12.3729C2.5 12.3682 2.5 12.3635 2.5 12.3588C2.5 12.354 2.5 12.3493 2.5 12.3445C2.5 12.3397 2.5 12.3349 2.5 12.3301C2.5 12.3253 2.5 12.3204 2.5 12.3156C2.5 12.3107 2.5 12.3058 2.5 12.3009C2.5 12.296 2.5 12.2911 2.5 12.2861C2.5 12.2812 2.5 12.2762 2.5 12.2712C2.5 12.2662 2.5 12.2612 2.5 12.2561C2.5 12.2511 2.5 12.246 2.5 12.2409C2.5 12.2358 2.5 12.2307 2.5 12.2256C2.5 12.2205 2.5 12.2153 2.5 12.2101C2.5 12.205 2.5 12.1998 2.5 12.1945C2.5 12.1893 2.5 12.1841 2.5 12.1788C2.5 12.1736 2.5 12.1683 2.5 12.163C2.5 12.1577 2.5 12.1524 2.5 12.147C2.5 12.1417 2.5 12.1363 2.5 12.1309C2.5 12.1256 2.5 12.1202 2.5 12.1147C2.5 12.1093 2.5 12.1039 2.5 12.0984C2.5 12.0929 2.5 12.0874 2.5 12.0819C2.5 12.0764 2.5 12.0709 2.5 12.0654C2.5 12.0598 2.5 12.0542 2.5 12.0486C2.5 12.0431 2.5 12.0375 2.5 12.0318C2.5 12.0262 2.5 12.0205 2.5 12.0149C2.5 12.0092 2.5 12.0035 2.5 11.9978C2.5 11.9921 2.5 11.9864 2.5 11.9806C2.5 11.9749 2.5 11.9691 2.5 11.9633C2.5 11.9575 2.5 11.9517 2.5 11.9459C2.5 11.9401 2.5 11.9342 2.5 11.9284C2.5 11.9225 2.5 11.9166 2.5 11.9107C2.5 11.9048 2.5 11.8989 2.5 11.893C2.5 11.887 2.5 11.8811 2.5 11.8751C2.5 11.8691 2.5 11.8631 2.5 11.8571C2.5 11.8511 2.5 11.845 2.5 11.839C2.5 11.8329 2.5 11.8268 2.5 11.8208C2.5 11.8147 2.5 11.8086 2.5 11.8024C2.5 11.7963 2.5 11.7901 2.5 11.784C2.5 11.7778 2.5 11.7716 2.5 11.7654C2.5 11.7592 2.5 11.753 2.5 11.7468C2.5 11.7405 2.5 11.7343 2.5 11.728C2.5 11.7217 2.5 11.7154 2.5 11.7091C2.5 11.7028 2.5 11.6965 2.5 11.6901C2.5 11.6838 2.5 11.6774 2.5 11.6711C2.5 11.6647 2.5 11.6583 2.5 11.6519C2.5 11.6454 2.5 11.639 2.5 11.6326C2.5 11.6261 2.5 11.6196 2.5 11.6132C2.5 11.6067 2.5 11.6002 2.5 11.5937C2.5 11.5871 2.5 11.5806 2.5 11.574C2.5 11.5675 2.5 11.5609 2.5 11.5543C2.5 11.5477 2.5 11.5411 2.5 11.5345C2.5 11.5279 2.5 11.5213 2.5 11.5146C2.5 11.508 2.5 11.5013 2.5 11.4946C2.5 11.4879 2.5 11.4812 2.5 11.4745C2.5 11.4678 2.5 11.461 2.5 11.4543C2.5 11.4475 2.5 11.4408 2.5 11.434C2.5 11.4272 2.5 11.4204 2.5 11.4136C2.5 11.4068 2.5 11.3999 2.5 11.3931C2.5 11.3862 2.5 11.3794 2.5 11.3725C2.5 11.3656 2.5 11.3587 2.5 11.3518C2.5 11.3449 2.5 11.338 2.5 11.331C2.5 11.3241 2.5 11.3171 2.5 11.3101C2.5 11.3032 2.5 11.2962 2.5 11.2892C2.5 11.2822 2.5 11.2751 2.5 11.2681C2.5 11.2611 2.5 11.254 2.5 11.247C2.5 11.2399 2.5 11.2328 2.5 11.2257C2.5 11.2186 2.5 11.2115 2.5 11.2044C2.5 11.1973 2.5 11.1901 2.5 11.183C2.5 11.1758 2.5 11.1687 2.5 11.1615C2.5 11.1543 2.5 11.1471 2.5 11.1399C2.5 11.1327 2.5 11.1254 2.5 11.1182C2.5 11.111 2.5 11.1037 2.5 11.0964C2.5 11.0892 2.5 11.0819 2.5 11.0746C2.5 11.0673 2.5 11.06 2.5 11.0527C2.5 11.0453 2.5 11.038 2.5 11.0307C2.5 11.0233 2.5 11.0159 2.5 11.0086C2.5 11.0012 2.5 10.9938 2.5 10.9864C2.5 10.979 2.5 10.9715 2.5 10.9641C2.5 10.9567 2.5 10.9492 2.5 10.9418C2.5 10.9343 2.5 10.9268 2.5 10.9194C2.5 10.9119 2.5 10.9044 2.5 10.8969C2.5 10.8893 2.5 10.8818 2.5 10.8743C2.5 10.8667 2.5 10.8592 2.5 10.8516C2.5 10.8441 2.5 10.8365 2.5 10.8289C2.5 10.8213 2.5 10.8137 2.5 10.8061C2.5 10.7985 2.5 10.7908 2.5 10.7832C2.5 10.7756 2.5 10.7679 2.5 10.7602C2.5 10.7526 2.5 10.7449 2.5 10.7372C2.5 10.7295 2.5 10.7218 2.5 10.7141C2.5 10.7064 2.5 10.6987 2.5 10.6909C2.5 10.6832 2.5 10.6755 2.5 10.6677C2.5 10.6599 2.5 10.6522 2.5 10.6444C2.5 10.6366 2.5 10.6288 2.5 10.621C2.5 10.6132 2.5 10.6054 2.5 10.5975C2.5 10.5897 2.5 10.5819 2.5 10.574C2.5 10.5662 2.5 10.5583 2.5 10.5504C2.5 10.5425 2.5 10.5346 2.5 10.5268C2.5 10.5189 2.5 10.5109 2.5 10.503C2.5 10.4951 2.5 10.4872 2.5 10.4792C2.5 10.4713 2.5 10.4633 2.5 10.4554C2.5 10.4474 2.5 10.4394 2.5 10.4315C2.5 10.4235 2.5 10.4155 2.5 10.4075C2.5 10.3995 2.5 10.3914 2.5 10.3834C2.5 10.3754 2.5 10.3674 2.5 10.3593C2.5 10.3513 2.5 10.3432 2.5 10.3351C2.5 10.3271 2.5 10.319 2.5 10.3109C2.5 10.3028 2.5 10.2947 2.5 10.2866C2.5 10.2785 2.5 10.2704 2.5 10.2623C2.5 10.2541 2.5 10.246 2.5 10.2379C2.5 10.2297 2.5 10.2216 2.5 10.2134C2.5 10.2052 2.5 10.1971 2.5 10.1889C2.5 10.1807 2.5 10.1725 2.5 10.1643C2.5 10.1561 2.5 10.1479 2.5 10.1397C2.5 10.1314 2.5 10.1232 2.5 10.115C2.5 10.1067 2.5 10.0985 2.5 10.0902C2.5 10.082 2.5 10.0737 2.5 10.0654C2.5 10.0572 2.5 10.0489 2.5 10.0406C2.5 10.0323 2.5 10.024 2.5 10.0157C2.5 10.0074 2.5 9.99907 2.5 9.99074C2.5 9.98242 2.5 9.97408 2.5 9.96574C2.5 9.9574 2.5 9.94905 2.5 9.94069C2.5 9.93234 2.5 9.92397 2.5 9.9156C2.5 9.90722 2.5 9.89884 2.5 9.89045C2.5 9.88206 2.5 9.87366 2.5 9.86526C2.5 9.85685 2.5 9.84844 2.5 9.84002C2.5 9.8316 2.5 9.82317 2.5 9.81474C2.5 9.8063 2.5 9.79786 2.5 9.78941C2.5 9.78096 2.5 9.7725 2.5 9.76403C2.5 9.75557 2.5 9.74709 2.5 9.73862C2.5 9.73014 2.5 9.72165 2.5 9.71316C2.5 9.70466 2.5 9.69616 2.5 9.68765C2.5 9.67915 2.5 9.67063 2.5 9.66211C2.5 9.65359 2.5 9.64506 2.5 9.63653C2.5 9.62799 2.5 9.61945 2.5 9.6109C2.5 9.60236 2.5 9.5938 2.5 9.58524C2.5 9.57668 2.5 9.56811 2.5 9.55954C2.5 9.55097 2.5 9.54239 2.5 9.5338C2.5 9.52522 2.5 9.51662 2.5 9.50803C2.5 9.49943 2.5 9.49083 2.5 9.48222C2.5 9.47361 2.5 9.46499 2.5 9.45637C2.5 9.44775 2.5 9.43912 2.5 9.43049C2.5 9.42186 2.5 9.41322 2.5 9.40457C2.5 9.39593 2.5 9.38728 2.5 9.37862C2.5 9.36997 2.5 9.36131 2.5 9.35264C2.5 9.34398 2.5 9.33531 2.5 9.32663C2.5 9.31796 2.5 9.30928 2.5 9.30059C2.5 9.2919 2.5 9.28321 2.5 9.27452C2.5 9.26582 2.5 9.25712 2.5 9.24841C2.5 9.23971 2.5 9.231 2.5 9.22228C2.5 9.21357 2.5 9.20485 2.5 9.19612C2.5 9.1874 2.5 9.17867 2.5 9.16994C2.5 9.1612 2.5 9.15247 2.5 9.14372C2.5 9.13498 2.5 9.12624 2.5 9.11748C2.5 9.10873 2.5 9.09998 2.5 9.09122C2.5 9.08246 2.5 9.0737 2.5 9.06493C2.5 9.05617 2.5 9.0474 2.5 9.03862C2.5 9.02985 2.5 9.02107 2.5 9.01229C2.5 9.0035 2.5 8.99472 2.5 8.98593C2.5 8.97714 2.5 8.96835 2.5 8.95955C2.5 8.95076 2.5 8.94196 2.5 8.93315C2.5 8.92435 2.5 8.91554 2.5 8.90674C2.5 8.89793 2.5 8.88911 2.5 8.8803C2.5 8.87148 2.5 8.86266 2.5 8.85384C2.5 8.84502 2.5 8.8362 2.5 8.82737C2.5 8.81854 2.5 8.80971 2.5 8.80088C2.5 8.79205 2.5 8.78321 2.5 8.77437C2.5 8.76553 2.5 8.75669 2.5 8.74785C2.5 8.73901 2.5 8.73016 2.5 8.72131C2.5 8.71247 2.5 8.70362 2.5 8.69476C2.5 8.68591 2.5 8.67706 2.5 8.6682C2.5 8.65934 2.5 8.65049 2.5 8.64162C2.5 8.63276 2.5 8.6239 2.5 8.61504C2.5 8.60617 2.5 8.59731 2.5 8.58844C2.5 8.57957 2.5 8.5707 2.5 8.56183C2.5 8.55296 2.5 8.54408 2.5 8.53521C2.5 8.52634 2.5 8.51746 2.5 8.50858C2.5 8.49971 2.5 8.49083 2.5 8.48195C2.5 8.47307 2.5 8.46419 2.5 8.4553C2.5 8.44642 2.5 8.43754 2.5 8.42866C2.5 8.41977 2.5 8.41089 2.5 8.402C2.5 8.39311 2.5 8.38423 2.5 8.37534C2.5 8.36645 2.5 8.35756 2.5 8.34868C2.5 8.33979 2.5 8.3309 2.5 8.32201C2.5 8.31312 2.5 8.30423 2.5 8.29534C2.5 8.28645 2.5 8.27755 2.5 8.26866C2.5 8.25977 2.5 8.25088 2.5 8.24199C2.5 8.2331 2.5 8.22421 2.5 8.21531C2.5 8.20642 2.5 8.19753 2.5 8.18864C2.5 8.17975 2.5 8.17086 2.5 8.16196C2.5 8.15307 2.5 8.14418 2.5 8.13529C2.5 8.1264 2.5 8.11751 2.5 8.10862C2.5 8.09973 2.5 8.09084 2.5 8.08195C2.5 8.07306 2.5 8.06418 2.5 8.05529C2.5 8.0464 2.5 8.03752 2.5 8.02863C2.5 8.01974 2.5 8.01086 2.5 8.00198C2.5 7.99309 2.5 7.98421 2.5 7.97533C2.5 7.96645 2.5 7.95757 2.5 7.94869C2.5 7.93981 2.5 7.93093 2.5 7.92205C2.5 7.91318 2.5 7.9043 2.5 7.89543C2.5 7.88655 2.5 7.87768 2.5 7.86881C2.5 7.85994 2.5 7.85107 2.5 7.8422C2.5 7.83334 2.5 7.82447 2.5 7.81561C2.5 7.80674 2.5 7.79788 2.5 7.78902C2.5 7.78016 2.5 7.7713 2.5 7.76245C2.5 7.75359 2.5 7.74474 2.5 7.73589C2.5 7.72704 2.5 7.71819 2.5 7.70934C2.5 7.70049 2.5 7.69165 2.5 7.68281C2.5 7.67396 2.5 7.66512 2.5 7.65629C2.5 7.64745 2.5 7.63862 2.5 7.62978C2.5 7.62095 2.5 7.61212 2.5 7.6033C2.5 7.59447 2.5 7.58565 2.5 7.57683C2.5 7.56801 2.5 7.55919 2.5 7.55038C2.5 7.54156 2.5 7.53275 2.5 7.52394C2.5 7.51513 2.5 7.50633 2.5 7.49753C2.5 7.48873 2.5 7.47993 2.5 7.47113C2.5 7.46234 2.5 7.45355 2.5 7.44476C2.5 7.43597 2.5 7.42719 2.5 7.41841C2.5 7.40963 2.5 7.40085 2.5 7.39208C2.5 7.38331 2.5 7.37454 2.5 7.36577C2.5 7.35701 2.5 7.34825 2.5 7.33949C2.5 7.33073 2.5 7.32198 2.5 7.31323C2.5 7.30448 2.5 7.29574 2.5 7.287C2.5 7.27826 2.5 7.26952 2.5 7.26079C2.5 7.25206 2.5 7.24333 2.5 7.23461C2.5 7.22588 2.5 7.21717 2.5 7.20845C2.5 7.19974 2.5 7.19103 2.5 7.18233C2.5 7.17362 2.5 7.16493 2.5 7.15623C2.5 7.14754 2.5 7.13885 2.5 7.13016C2.5 7.12148 2.5 7.1128 2.5 7.10413C2.5 7.09545 2.5 7.08679 2.5 7.07812C2.5 7.06946 2.5 7.0608 2.5 7.05215C2.5 7.0435 2.5 7.03485 2.5 7.02621C2.5 7.01757 2.5 7.00893 2.5 7.0003C2.5 6.99167 2.5 6.98304 2.5 6.97442C2.5 6.96581 2.5 6.95719 2.5 6.94859C2.5 6.93998 2.5 6.93138 2.5 6.92278C2.5 6.91419 2.5 6.9056 2.5 6.89701C2.5 6.88843 2.5 6.87985 2.5 6.87128C2.5 6.86271 2.5 6.85415 2.5 6.84559C2.5 6.83703 2.5 6.82848 2.5 6.81994C2.5 6.81139 2.5 6.80285 2.5 6.79432C2.5 6.78579 2.5 6.77726 2.5 6.76875C2.5 6.76023 2.5 6.75172 2.5 6.74321C2.5 6.73471 2.5 6.72621 2.5 6.71772C2.5 6.70923 2.5 6.70074 2.5 6.69227C2.5 6.68379 2.5 6.67532 2.5 6.66686C2.5 6.6584 2.5 6.64994 2.5 6.64149C2.5 6.63305 2.5 6.62461 2.5 6.61617C2.5 6.60774 2.5 6.59932 2.5 6.5909C2.5 6.58248 2.5 6.57407 2.5 6.56567C2.5 6.55727 2.5 6.54887 2.5 6.54049C2.5 6.5321 2.5 6.52372 2.5 6.51535C2.5 6.50698 2.5 6.49862 2.5 6.49026C2.5 6.48191 2.5 6.47356 2.5 6.46522C2.5 6.45689 2.5 6.44856 2.5 6.44023C2.5 6.43191 2.5 6.4236 2.5 6.4153C2.5 6.40699 2.5 6.39869 2.5 6.39041C2.5 6.38212 2.5 6.37384 2.5 6.36557C2.5 6.3573 2.5 6.34904 2.5 6.34079C2.5 6.33253 2.5 6.32429 2.5 6.31606C2.5 6.30782 2.5 6.2996 2.5 6.29138C2.5 6.28316 2.5 6.27496 2.5 6.26676C2.5 6.25856 2.5 6.25037 2.5 6.24219C2.5 6.23401 2.5 6.22584 2.5 6.21768C2.5 6.20952 2.5 6.20137 2.5 6.19323C2.5 6.18509 2.5 6.17695 2.5 6.16883C2.5 6.16071 2.5 6.1526 2.5 6.14449C2.5 6.13639 2.5 6.1283 2.5 6.12022C2.5 6.11213 2.5 6.10406 2.5 6.096C2.5 6.08793 2.5 6.07988 2.5 6.07184C2.5 6.0638 2.5 6.05576 2.5 6.04774C2.5 6.03972 2.5 6.03171 2.5 6.02371C2.5 6.01571 2.5 6.00772 2.5 5.99974C2.5 5.99176 2.5 5.98379 2.5 5.97583C2.5 5.96787 2.5 5.95992 2.5 5.95198C2.5 5.94405 2.5 5.93612 2.5 5.9282C2.5 5.92029 2.5 5.91238 2.5 5.90449C2.5 5.8966 2.5 5.88871 2.5 5.88084C2.5 5.87297 2.5 5.86511 2.5 5.85726C2.5 5.84942 2.5 5.84158 2.5 5.83375C2.5 5.82593 2.5 5.81811 2.5 5.81031C2.5 5.80251 2.5 5.79472 2.5 5.78694C2.5 5.77916 2.5 5.77139 2.5 5.76363C2.5 5.75588 2.5 5.74813 2.5 5.7404C2.5 5.73267 2.5 5.72495 2.5 5.71724C2.5 5.70953 2.5 5.70183 2.5 5.69415C2.5 5.68647 2.5 5.67879 2.5 5.67114C2.5 5.66348 2.5 5.65583 2.5 5.64819C2.5 5.64056 2.5 5.63294 2.5 5.62533C2.5 5.61772 2.5 5.61012 2.5 5.60254C2.5 5.59495 2.5 5.58738 2.5 5.57982C2.5 5.57226 2.5 5.56471 2.5 5.55718C2.5 5.54965 2.5 5.54213 2.5 5.53462C2.5 5.52711 2.5 5.51962 2.5 5.51214C2.5 5.50466 2.5 5.49719 2.5 5.48973C2.5 5.48228 2.5 5.47484 2.5 5.46741C2.5 5.45998 2.5 5.45257 2.5 5.44517C2.5 5.43777 2.5 5.43038 2.5 5.423C2.5 5.41563 2.5 5.40827 2.5 5.40092C2.5 5.39358 2.5 5.38624 2.5 5.37893C2.5 5.37161 2.5 5.3643 2.5 5.35701C2.5 5.34972 2.5 5.34244 2.5 5.33518C2.5 5.32792 2.5 5.32067 2.5 5.31344C2.5 5.3062 2.5 5.29898 2.5 5.29178C2.5 5.28457 2.5 5.27738 2.5 5.27021C2.5 5.26303 2.5 5.25587 2.5 5.24872C2.5 5.24157 2.5 5.23444 2.5 5.22732C2.5 5.2202 2.5 5.2131 2.5 5.20601C2.5 5.19892 2.5 5.19185 2.5 5.18479C2.5 5.17773 2.5 5.17069 2.5 5.16366C2.5 5.15663 2.5 5.14962 2.5 5.14262C2.5 5.13563 2.5 5.12864 2.5 5.12168C2.5 5.11471 2.5 5.10776 2.5 5.10082C2.5 5.09388 2.5 5.08696 2.5 5.08006C2.5 5.07315 2.5 5.06626 2.5 5.05939C2.5 5.05252 2.5 5.04566 2.5 5.03882C2.5 5.03197 2.5 5.02515 2.5 5.01834C2.5 5.01153 2.5 5.00473 2.5 4.99796C2.5 4.99118 2.5 4.98442 2.5 4.97767C2.5 4.97092 2.5 4.96419 2.5 4.95748C2.5 4.95077 2.5 4.94407 2.5 4.93739C2.5 4.93071 2.5 4.92405 2.5 4.9174C2.5 4.91075 2.5 4.90412 2.5 4.89751C2.5 4.89089 2.5 4.8843 2.5 4.87772C2.5 4.87114 2.5 4.86457 2.5 4.85803C2.5 4.85148 2.5 4.84495 2.5 4.83844C2.5 4.83193 2.5 4.82543 2.5 4.81895C2.5 4.81248 2.5 4.80602 2.5 4.79957C2.5 4.79313 2.5 4.7867 2.5 4.78029C2.5 4.77389 2.5 4.76749 2.5 4.76112C2.5 4.75475 2.5 4.74839 2.5 4.74205C2.5 4.73572 2.5 4.7294 2.5 4.72309C2.5 4.71679 2.5 4.71051 2.5 4.70424C2.5 4.69797 2.5 4.69172 2.5 4.68549C2.5 4.67926 2.5 4.67305 2.5 4.66685C2.5 4.66066 2.5 4.65448 2.5 4.64833C2.5 4.64217 2.5 4.63603 2.5 4.62991C2.5 4.62379 2.5 4.61768 2.5 4.6116C2.5 4.60552 2.5 4.59945 2.5 4.5934C2.5 4.58736 2.5 4.58133 2.5 4.57532C2.5 4.56931 2.5 4.56332 2.5 4.55735C2.5 4.55138 2.5 4.54543 2.5 4.53949C2.5 4.53356 2.5 4.52764 2.5 4.52175C2.5 4.51585 2.5 4.50998 2.5 4.50412C2.5 4.49826 2.5 4.49243 2.5 4.48661C2.5 4.48079 2.5 4.47499 2.5 4.46921C2.5 4.46344 2.5 4.45768 2.5 4.45194C2.5 4.4462 2.5 4.44048 2.5 4.43478C2.5 4.42908 2.5 4.4234 2.5 4.41774C2.5 4.41208 2.5 4.40644 2.5 4.40082C2.5 4.3952 2.5 4.38959 2.5 4.38401C2.5 4.37843 2.5 4.37287 2.5 4.36734C2.5 4.3618 2.5 4.35628 2.5 4.35078C2.5 4.34528 2.5 4.3398 2.5 4.33434C2.5 4.32888 2.5 4.32345 2.5 4.31803C2.5 4.31261 2.5 4.30722 2.5 4.30184C2.5 4.29647 2.5 4.29111 2.5 4.28578C2.5 4.28045 2.5 4.27513 2.5 4.26984C2.5 4.26455 2.5 4.25928 2.5 4.25403C2.5 4.24878 2.5 4.24355 2.5 4.23835C2.5 4.23314 2.5 4.22795 2.5 4.22279C2.5 4.21762 2.5 4.21248 2.5 4.20736C2.5 4.20224 2.5 4.19714 2.5 4.19206C2.5 4.18698 2.5 4.18193 2.5 4.17689C2.5 4.17186 2.5 4.16684 2.5 4.16185C2.5 4.15686 2.5 4.15189 2.5 4.14695C2.5 4.142 2.5 4.13707 2.5 4.13217C2.5 4.12727 2.5 4.12239 2.5 4.11753C2.5 4.11267 2.5 4.10784 2.5 4.10302C2.5 4.09821 2.5 4.09342 2.5 4.08865C2.5 4.08388 2.5 4.07913 2.5 4.07441C2.5 4.06969 2.5 4.06498 2.5 4.06031C2.5 4.05563 2.5 4.05097 2.5 4.04634C2.5 4.04171 2.5 4.0371 2.5 4.03251C2.5 4.02792 2.5 4.02336 2.5 4.01882C2.5 4.01428 2.5 4.00976 2.5 4.00527C2.5 4.00077 2.5 3.9963 2.5 3.99185C2.5 3.98741 2.5 3.98298 2.5 3.97858C2.5 3.97418 2.5 3.9698 2.5 3.96545C2.5 3.9611 2.5 3.95677 2.5 3.95246C2.5 3.94815 2.5 3.94387 2.5 3.93961C2.5 3.93535 2.5 3.93112 2.5 3.92691C2.5 3.9227 2.5 3.91851 2.5 3.91435C2.5 3.91019 2.5 3.90605 2.5 3.90193C2.5 3.89782 2.5 3.89373 2.5 3.88966C2.5 3.8856 2.5 3.88156 2.5 3.87754C2.5 3.87352 2.5 3.86953 2.5 3.86556C2.5 3.86159 2.5 3.85765 2.5 3.85373C2.5 3.84981 2.5 3.84592 2.5 3.84205C2.5 3.83818 2.5 3.83434 2.5 3.83052C2.5 3.8267 2.5 3.82291 2.5 3.81914C2.5 3.81537 2.5 3.81163 2.5 3.80791C2.5 3.80419 2.5 3.8005 2.5 3.79683C2.5 3.79316 2.5 3.78952 2.5 3.7859C2.5 3.78228 2.5 3.77869 2.5 3.77512C2.5 3.77156 2.5 3.76802 2.5 3.7645C2.5 3.76099 2.5 3.7575 2.5 3.75404C2.5 3.75057 2.5 3.74714 2.5 3.74372C2.5 3.74031 2.5 3.73693 2.5 3.73357C2.5 3.73021 2.5 3.72687 2.5 3.72357C2.5 3.72026 2.5 3.71698 2.5 3.71372C2.5 3.71047 2.5 3.70724 2.5 3.70404C2.5 3.70084 2.5 3.69766 2.5 3.69451C2.5 3.69136 2.5 3.68824 2.5 3.68515C2.5 3.68205 2.5 3.67898 2.5 3.67594C2.5 3.6729 2.5 3.66988 2.5 3.6669C2.5 3.66391 2.5 3.66095 2.5 3.65801C2.5 3.65508 2.5 3.65217 2.5 3.64929C2.5 3.64641 2.5 3.64356 2.5 3.64073C2.5 3.63791 2.5 3.63511 2.5 3.63234C2.5 3.62957 2.5 3.62682 2.5 3.62411C2.5 3.62139 2.5 3.6187 2.5 3.61604C2.5 3.61338 2.5 3.61075 2.5 3.60814C2.5 3.60554 2.5 3.60296 2.5 3.60041C2.5 3.59786 2.5 3.59534 2.5 3.59285C2.5 3.59036 2.5 3.58789 2.5 3.58545C2.5 3.58302 2.5 3.58061 2.5 3.57823C2.5 3.57585 2.5 3.57349 2.5 3.57117C2.5 3.56885 2.5 3.56655 2.5 3.56428C2.5 3.56202 2.5 3.55978 2.5 3.55757C2.5 3.55536 2.5 3.55318 2.5 3.55103C2.5 3.54887 2.5 3.54675 2.5 3.54466C2.5 3.54256 2.5 3.5405 2.5 3.53846C2.5 3.53642 2.5 3.53441 2.5 3.53244C2.5 3.53046 2.5 3.52851 2.5 3.52659C2.5 3.52467 2.5 3.52278 2.5 3.52092C2.5 3.51906 2.5 3.51722 2.5 3.51542C2.5 3.51362 2.5 3.51185 2.5 3.5101C2.5 3.50836 2.5 3.50665 2.5 3.50496C2.5 3.50328 2.5 3.50162 2.5 3.5H1.5C1.5 3.50162 1.5 3.50328 1.5 3.50496C1.5 3.50665 1.5 3.50836 1.5 3.5101C1.5 3.51185 1.5 3.51362 1.5 3.51542C1.5 3.51722 1.5 3.51906 1.5 3.52092C1.5 3.52278 1.5 3.52467 1.5 3.52659C1.5 3.52851 1.5 3.53046 1.5 3.53244C1.5 3.53441 1.5 3.53642 1.5 3.53846C1.5 3.5405 1.5 3.54256 1.5 3.54466C1.5 3.54675 1.5 3.54887 1.5 3.55103C1.5 3.55318 1.5 3.55536 1.5 3.55757C1.5 3.55978 1.5 3.56202 1.5 3.56428C1.5 3.56655 1.5 3.56885 1.5 3.57117C1.5 3.57349 1.5 3.57585 1.5 3.57823C1.5 3.58061 1.5 3.58302 1.5 3.58545C1.5 3.58789 1.5 3.59036 1.5 3.59285C1.5 3.59534 1.5 3.59786 1.5 3.60041C1.5 3.60296 1.5 3.60554 1.5 3.60814C1.5 3.61075 1.5 3.61338 1.5 3.61604C1.5 3.6187 1.5 3.62139 1.5 3.62411C1.5 3.62682 1.5 3.62957 1.5 3.63234C1.5 3.63511 1.5 3.63791 1.5 3.64073C1.5 3.64356 1.5 3.64641 1.5 3.64929C1.5 3.65217 1.5 3.65508 1.5 3.65801C1.5 3.66095 1.5 3.66391 1.5 3.6669C1.5 3.66988 1.5 3.6729 1.5 3.67594C1.5 3.67898 1.5 3.68205 1.5 3.68515C1.5 3.68824 1.5 3.69136 1.5 3.69451C1.5 3.69766 1.5 3.70084 1.5 3.70404C1.5 3.70724 1.5 3.71047 1.5 3.71372C1.5 3.71698 1.5 3.72026 1.5 3.72357C1.5 3.72687 1.5 3.73021 1.5 3.73357C1.5 3.73693 1.5 3.74031 1.5 3.74372C1.5 3.74714 1.5 3.75057 1.5 3.75404C1.5 3.7575 1.5 3.76099 1.5 3.7645C1.5 3.76802 1.5 3.77156 1.5 3.77512C1.5 3.77869 1.5 3.78228 1.5 3.7859C1.5 3.78952 1.5 3.79316 1.5 3.79683C1.5 3.8005 1.5 3.80419 1.5 3.80791C1.5 3.81163 1.5 3.81537 1.5 3.81914C1.5 3.82291 1.5 3.8267 1.5 3.83052C1.5 3.83434 1.5 3.83818 1.5 3.84205C1.5 3.84592 1.5 3.84981 1.5 3.85373C1.5 3.85765 1.5 3.86159 1.5 3.86556C1.5 3.86953 1.5 3.87352 1.5 3.87754C1.5 3.88156 1.5 3.8856 1.5 3.88966C1.5 3.89373 1.5 3.89782 1.5 3.90193C1.5 3.90605 1.5 3.91019 1.5 3.91435C1.5 3.91851 1.5 3.9227 1.5 3.92691C1.5 3.93112 1.5 3.93535 1.5 3.93961C1.5 3.94387 1.5 3.94815 1.5 3.95246C1.5 3.95677 1.5 3.9611 1.5 3.96545C1.5 3.9698 1.5 3.97418 1.5 3.97858C1.5 3.98298 1.5 3.98741 1.5 3.99185C1.5 3.9963 1.5 4.00077 1.5 4.00527C1.5 4.00976 1.5 4.01428 1.5 4.01882C1.5 4.02336 1.5 4.02792 1.5 4.03251C1.5 4.0371 1.5 4.04171 1.5 4.04634C1.5 4.05097 1.5 4.05563 1.5 4.06031C1.5 4.06498 1.5 4.06969 1.5 4.07441C1.5 4.07913 1.5 4.08388 1.5 4.08865C1.5 4.09342 1.5 4.09821 1.5 4.10302C1.5 4.10784 1.5 4.11267 1.5 4.11753C1.5 4.12239 1.5 4.12727 1.5 4.13217C1.5 4.13707 1.5 4.142 1.5 4.14695C1.5 4.15189 1.5 4.15686 1.5 4.16185C1.5 4.16684 1.5 4.17186 1.5 4.17689C1.5 4.18193 1.5 4.18698 1.5 4.19206C1.5 4.19714 1.5 4.20224 1.5 4.20736C1.5 4.21248 1.5 4.21762 1.5 4.22279C1.5 4.22795 1.5 4.23314 1.5 4.23835C1.5 4.24355 1.5 4.24878 1.5 4.25403C1.5 4.25928 1.5 4.26455 1.5 4.26984C1.5 4.27513 1.5 4.28045 1.5 4.28578C1.5 4.29111 1.5 4.29647 1.5 4.30184C1.5 4.30722 1.5 4.31261 1.5 4.31803C1.5 4.32345 1.5 4.32888 1.5 4.33434C1.5 4.3398 1.5 4.34528 1.5 4.35078C1.5 4.35628 1.5 4.3618 1.5 4.36734C1.5 4.37287 1.5 4.37843 1.5 4.38401C1.5 4.38959 1.5 4.3952 1.5 4.40082C1.5 4.40644 1.5 4.41208 1.5 4.41774C1.5 4.4234 1.5 4.42908 1.5 4.43478C1.5 4.44048 1.5 4.4462 1.5 4.45194C1.5 4.45768 1.5 4.46344 1.5 4.46921C1.5 4.47499 1.5 4.48079 1.5 4.48661C1.5 4.49243 1.5 4.49826 1.5 4.50412C1.5 4.50998 1.5 4.51585 1.5 4.52175C1.5 4.52764 1.5 4.53356 1.5 4.53949C1.5 4.54543 1.5 4.55138 1.5 4.55735C1.5 4.56332 1.5 4.56931 1.5 4.57532C1.5 4.58133 1.5 4.58736 1.5 4.5934C1.5 4.59945 1.5 4.60552 1.5 4.6116C1.5 4.61768 1.5 4.62379 1.5 4.62991C1.5 4.63603 1.5 4.64217 1.5 4.64833C1.5 4.65448 1.5 4.66066 1.5 4.66685C1.5 4.67305 1.5 4.67926 1.5 4.68549C1.5 4.69172 1.5 4.69797 1.5 4.70424C1.5 4.71051 1.5 4.71679 1.5 4.72309C1.5 4.7294 1.5 4.73572 1.5 4.74205C1.5 4.74839 1.5 4.75475 1.5 4.76112C1.5 4.76749 1.5 4.77389 1.5 4.78029C1.5 4.7867 1.5 4.79313 1.5 4.79957C1.5 4.80602 1.5 4.81248 1.5 4.81895C1.5 4.82543 1.5 4.83193 1.5 4.83844C1.5 4.84495 1.5 4.85148 1.5 4.85803C1.5 4.86457 1.5 4.87114 1.5 4.87772C1.5 4.8843 1.5 4.89089 1.5 4.89751C1.5 4.90412 1.5 4.91075 1.5 4.9174C1.5 4.92405 1.5 4.93071 1.5 4.93739C1.5 4.94407 1.5 4.95077 1.5 4.95748C1.5 4.96419 1.5 4.97092 1.5 4.97767C1.5 4.98442 1.5 4.99118 1.5 4.99796C1.5 5.00473 1.5 5.01153 1.5 5.01834C1.5 5.02515 1.5 5.03197 1.5 5.03882C1.5 5.04566 1.5 5.05252 1.5 5.05939C1.5 5.06626 1.5 5.07315 1.5 5.08006C1.5 5.08696 1.5 5.09388 1.5 5.10082C1.5 5.10776 1.5 5.11471 1.5 5.12168C1.5 5.12864 1.5 5.13563 1.5 5.14262C1.5 5.14962 1.5 5.15663 1.5 5.16366C1.5 5.17069 1.5 5.17773 1.5 5.18479C1.5 5.19185 1.5 5.19892 1.5 5.20601C1.5 5.2131 1.5 5.2202 1.5 5.22732C1.5 5.23444 1.5 5.24157 1.5 5.24872C1.5 5.25587 1.5 5.26303 1.5 5.27021C1.5 5.27738 1.5 5.28457 1.5 5.29178C1.5 5.29898 1.5 5.3062 1.5 5.31344C1.5 5.32067 1.5 5.32792 1.5 5.33518C1.5 5.34244 1.5 5.34972 1.5 5.35701C1.5 5.3643 1.5 5.37161 1.5 5.37893C1.5 5.38624 1.5 5.39358 1.5 5.40092C1.5 5.40827 1.5 5.41563 1.5 5.423C1.5 5.43038 1.5 5.43777 1.5 5.44517C1.5 5.45257 1.5 5.45998 1.5 5.46741C1.5 5.47484 1.5 5.48228 1.5 5.48973C1.5 5.49719 1.5 5.50466 1.5 5.51214C1.5 5.51962 1.5 5.52711 1.5 5.53462C1.5 5.54213 1.5 5.54965 1.5 5.55718C1.5 5.56471 1.5 5.57226 1.5 5.57982C1.5 5.58738 1.5 5.59495 1.5 5.60254C1.5 5.61012 1.5 5.61772 1.5 5.62533C1.5 5.63294 1.5 5.64056 1.5 5.64819C1.5 5.65583 1.5 5.66348 1.5 5.67114C1.5 5.67879 1.5 5.68647 1.5 5.69415C1.5 5.70183 1.5 5.70953 1.5 5.71724C1.5 5.72495 1.5 5.73267 1.5 5.7404C1.5 5.74813 1.5 5.75588 1.5 5.76363C1.5 5.77139 1.5 5.77916 1.5 5.78694C1.5 5.79472 1.5 5.80251 1.5 5.81031C1.5 5.81811 1.5 5.82593 1.5 5.83375C1.5 5.84158 1.5 5.84942 1.5 5.85726C1.5 5.86511 1.5 5.87297 1.5 5.88084C1.5 5.88871 1.5 5.8966 1.5 5.90449C1.5 5.91238 1.5 5.92029 1.5 5.9282C1.5 5.93612 1.5 5.94405 1.5 5.95198C1.5 5.95992 1.5 5.96787 1.5 5.97583C1.5 5.98379 1.5 5.99176 1.5 5.99974C1.5 6.00772 1.5 6.01571 1.5 6.02371C1.5 6.03171 1.5 6.03972 1.5 6.04774C1.5 6.05576 1.5 6.0638 1.5 6.07184C1.5 6.07988 1.5 6.08793 1.5 6.096C1.5 6.10406 1.5 6.11213 1.5 6.12022C1.5 6.1283 1.5 6.13639 1.5 6.14449C1.5 6.1526 1.5 6.16071 1.5 6.16883C1.5 6.17695 1.5 6.18509 1.5 6.19323C1.5 6.20137 1.5 6.20952 1.5 6.21768C1.5 6.22584 1.5 6.23401 1.5 6.24219C1.5 6.25037 1.5 6.25856 1.5 6.26676C1.5 6.27496 1.5 6.28316 1.5 6.29138C1.5 6.2996 1.5 6.30782 1.5 6.31606C1.5 6.32429 1.5 6.33253 1.5 6.34079C1.5 6.34904 1.5 6.3573 1.5 6.36557C1.5 6.37384 1.5 6.38212 1.5 6.39041C1.5 6.39869 1.5 6.40699 1.5 6.4153C1.5 6.4236 1.5 6.43191 1.5 6.44023C1.5 6.44856 1.5 6.45689 1.5 6.46522C1.5 6.47356 1.5 6.48191 1.5 6.49026C1.5 6.49862 1.5 6.50698 1.5 6.51535C1.5 6.52372 1.5 6.5321 1.5 6.54049C1.5 6.54887 1.5 6.55727 1.5 6.56567C1.5 6.57407 1.5 6.58248 1.5 6.5909C1.5 6.59932 1.5 6.60774 1.5 6.61617C1.5 6.62461 1.5 6.63305 1.5 6.64149C1.5 6.64994 1.5 6.6584 1.5 6.66686C1.5 6.67532 1.5 6.68379 1.5 6.69227C1.5 6.70074 1.5 6.70923 1.5 6.71772C1.5 6.72621 1.5 6.73471 1.5 6.74321C1.5 6.75172 1.5 6.76023 1.5 6.76875C1.5 6.77726 1.5 6.78579 1.5 6.79432C1.5 6.80285 1.5 6.81139 1.5 6.81994C1.5 6.82848 1.5 6.83703 1.5 6.84559C1.5 6.85415 1.5 6.86271 1.5 6.87128C1.5 6.87985 1.5 6.88843 1.5 6.89701C1.5 6.9056 1.5 6.91419 1.5 6.92278C1.5 6.93138 1.5 6.93998 1.5 6.94859C1.5 6.95719 1.5 6.96581 1.5 6.97442C1.5 6.98304 1.5 6.99167 1.5 7.0003C1.5 7.00893 1.5 7.01757 1.5 7.02621C1.5 7.03485 1.5 7.0435 1.5 7.05215C1.5 7.0608 1.5 7.06946 1.5 7.07812C1.5 7.08679 1.5 7.09545 1.5 7.10413C1.5 7.1128 1.5 7.12148 1.5 7.13016C1.5 7.13885 1.5 7.14754 1.5 7.15623C1.5 7.16493 1.5 7.17362 1.5 7.18233C1.5 7.19103 1.5 7.19974 1.5 7.20845C1.5 7.21717 1.5 7.22588 1.5 7.23461C1.5 7.24333 1.5 7.25206 1.5 7.26079C1.5 7.26952 1.5 7.27826 1.5 7.287C1.5 7.29574 1.5 7.30448 1.5 7.31323C1.5 7.32198 1.5 7.33073 1.5 7.33949C1.5 7.34825 1.5 7.35701 1.5 7.36577C1.5 7.37454 1.5 7.38331 1.5 7.39208C1.5 7.40085 1.5 7.40963 1.5 7.41841C1.5 7.42719 1.5 7.43597 1.5 7.44476C1.5 7.45355 1.5 7.46234 1.5 7.47113C1.5 7.47993 1.5 7.48873 1.5 7.49753C1.5 7.50633 1.5 7.51513 1.5 7.52394C1.5 7.53275 1.5 7.54156 1.5 7.55038C1.5 7.55919 1.5 7.56801 1.5 7.57683C1.5 7.58565 1.5 7.59447 1.5 7.6033C1.5 7.61212 1.5 7.62095 1.5 7.62978C1.5 7.63862 1.5 7.64745 1.5 7.65629C1.5 7.66512 1.5 7.67396 1.5 7.68281C1.5 7.69165 1.5 7.70049 1.5 7.70934C1.5 7.71819 1.5 7.72704 1.5 7.73589C1.5 7.74474 1.5 7.75359 1.5 7.76245C1.5 7.7713 1.5 7.78016 1.5 7.78902C1.5 7.79788 1.5 7.80674 1.5 7.81561C1.5 7.82447 1.5 7.83334 1.5 7.8422C1.5 7.85107 1.5 7.85994 1.5 7.86881C1.5 7.87768 1.5 7.88655 1.5 7.89543C1.5 7.9043 1.5 7.91318 1.5 7.92205C1.5 7.93093 1.5 7.93981 1.5 7.94869C1.5 7.95757 1.5 7.96645 1.5 7.97533C1.5 7.98421 1.5 7.99309 1.5 8.00198C1.5 8.01086 1.5 8.01974 1.5 8.02863C1.5 8.03752 1.5 8.0464 1.5 8.05529C1.5 8.06418 1.5 8.07306 1.5 8.08195C1.5 8.09084 1.5 8.09973 1.5 8.10862C1.5 8.11751 1.5 8.1264 1.5 8.13529C1.5 8.14418 1.5 8.15307 1.5 8.16196C1.5 8.17086 1.5 8.17975 1.5 8.18864C1.5 8.19753 1.5 8.20642 1.5 8.21531C1.5 8.22421 1.5 8.2331 1.5 8.24199C1.5 8.25088 1.5 8.25977 1.5 8.26866C1.5 8.27755 1.5 8.28645 1.5 8.29534C1.5 8.30423 1.5 8.31312 1.5 8.32201C1.5 8.3309 1.5 8.33979 1.5 8.34868C1.5 8.35756 1.5 8.36645 1.5 8.37534C1.5 8.38423 1.5 8.39311 1.5 8.402C1.5 8.41089 1.5 8.41977 1.5 8.42866C1.5 8.43754 1.5 8.44642 1.5 8.4553C1.5 8.46419 1.5 8.47307 1.5 8.48195C1.5 8.49083 1.5 8.49971 1.5 8.50858C1.5 8.51746 1.5 8.52634 1.5 8.53521C1.5 8.54408 1.5 8.55296 1.5 8.56183C1.5 8.5707 1.5 8.57957 1.5 8.58844C1.5 8.59731 1.5 8.60617 1.5 8.61504C1.5 8.6239 1.5 8.63276 1.5 8.64162C1.5 8.65049 1.5 8.65934 1.5 8.6682C1.5 8.67706 1.5 8.68591 1.5 8.69476C1.5 8.70362 1.5 8.71247 1.5 8.72131C1.5 8.73016 1.5 8.73901 1.5 8.74785C1.5 8.75669 1.5 8.76553 1.5 8.77437C1.5 8.78321 1.5 8.79205 1.5 8.80088C1.5 8.80971 1.5 8.81854 1.5 8.82737C1.5 8.8362 1.5 8.84502 1.5 8.85384C1.5 8.86266 1.5 8.87148 1.5 8.8803C1.5 8.88911 1.5 8.89793 1.5 8.90674C1.5 8.91554 1.5 8.92435 1.5 8.93315C1.5 8.94196 1.5 8.95076 1.5 8.95955C1.5 8.96835 1.5 8.97714 1.5 8.98593C1.5 8.99472 1.5 9.0035 1.5 9.01229C1.5 9.02107 1.5 9.02985 1.5 9.03862C1.5 9.0474 1.5 9.05617 1.5 9.06493C1.5 9.0737 1.5 9.08246 1.5 9.09122C1.5 9.09998 1.5 9.10873 1.5 9.11748C1.5 9.12624 1.5 9.13498 1.5 9.14372C1.5 9.15247 1.5 9.1612 1.5 9.16994C1.5 9.17867 1.5 9.1874 1.5 9.19612C1.5 9.20485 1.5 9.21357 1.5 9.22228C1.5 9.231 1.5 9.23971 1.5 9.24841C1.5 9.25712 1.5 9.26582 1.5 9.27452C1.5 9.28321 1.5 9.2919 1.5 9.30059C1.5 9.30928 1.5 9.31796 1.5 9.32663C1.5 9.33531 1.5 9.34398 1.5 9.35264C1.5 9.36131 1.5 9.36997 1.5 9.37862C1.5 9.38728 1.5 9.39593 1.5 9.40457C1.5 9.41322 1.5 9.42186 1.5 9.43049C1.5 9.43912 1.5 9.44775 1.5 9.45637C1.5 9.46499 1.5 9.47361 1.5 9.48222C1.5 9.49083 1.5 9.49943 1.5 9.50803C1.5 9.51662 1.5 9.52522 1.5 9.5338C1.5 9.54239 1.5 9.55097 1.5 9.55954C1.5 9.56811 1.5 9.57668 1.5 9.58524C1.5 9.5938 1.5 9.60236 1.5 9.6109C1.5 9.61945 1.5 9.62799 1.5 9.63653C1.5 9.64506 1.5 9.65359 1.5 9.66211C1.5 9.67063 1.5 9.67915 1.5 9.68765C1.5 9.69616 1.5 9.70466 1.5 9.71316C1.5 9.72165 1.5 9.73014 1.5 9.73862C1.5 9.74709 1.5 9.75557 1.5 9.76403C1.5 9.7725 1.5 9.78096 1.5 9.78941C1.5 9.79786 1.5 9.8063 1.5 9.81474C1.5 9.82317 1.5 9.8316 1.5 9.84002C1.5 9.84844 1.5 9.85685 1.5 9.86526C1.5 9.87366 1.5 9.88206 1.5 9.89045C1.5 9.89884 1.5 9.90722 1.5 9.9156C1.5 9.92397 1.5 9.93234 1.5 9.94069C1.5 9.94905 1.5 9.9574 1.5 9.96574C1.5 9.97408 1.5 9.98242 1.5 9.99074C1.5 9.99907 1.5 10.0074 1.5 10.0157C1.5 10.024 1.5 10.0323 1.5 10.0406C1.5 10.0489 1.5 10.0572 1.5 10.0654C1.5 10.0737 1.5 10.082 1.5 10.0902C1.5 10.0985 1.5 10.1067 1.5 10.115C1.5 10.1232 1.5 10.1314 1.5 10.1397C1.5 10.1479 1.5 10.1561 1.5 10.1643C1.5 10.1725 1.5 10.1807 1.5 10.1889C1.5 10.1971 1.5 10.2052 1.5 10.2134C1.5 10.2216 1.5 10.2297 1.5 10.2379C1.5 10.246 1.5 10.2541 1.5 10.2623C1.5 10.2704 1.5 10.2785 1.5 10.2866C1.5 10.2947 1.5 10.3028 1.5 10.3109C1.5 10.319 1.5 10.3271 1.5 10.3351C1.5 10.3432 1.5 10.3513 1.5 10.3593C1.5 10.3674 1.5 10.3754 1.5 10.3834C1.5 10.3914 1.5 10.3995 1.5 10.4075C1.5 10.4155 1.5 10.4235 1.5 10.4315C1.5 10.4394 1.5 10.4474 1.5 10.4554C1.5 10.4633 1.5 10.4713 1.5 10.4792C1.5 10.4872 1.5 10.4951 1.5 10.503C1.5 10.5109 1.5 10.5189 1.5 10.5268C1.5 10.5346 1.5 10.5425 1.5 10.5504C1.5 10.5583 1.5 10.5662 1.5 10.574C1.5 10.5819 1.5 10.5897 1.5 10.5975C1.5 10.6054 1.5 10.6132 1.5 10.621C1.5 10.6288 1.5 10.6366 1.5 10.6444C1.5 10.6522 1.5 10.6599 1.5 10.6677C1.5 10.6755 1.5 10.6832 1.5 10.6909C1.5 10.6987 1.5 10.7064 1.5 10.7141C1.5 10.7218 1.5 10.7295 1.5 10.7372C1.5 10.7449 1.5 10.7526 1.5 10.7602C1.5 10.7679 1.5 10.7756 1.5 10.7832C1.5 10.7908 1.5 10.7985 1.5 10.8061C1.5 10.8137 1.5 10.8213 1.5 10.8289C1.5 10.8365 1.5 10.8441 1.5 10.8516C1.5 10.8592 1.5 10.8667 1.5 10.8743C1.5 10.8818 1.5 10.8893 1.5 10.8969C1.5 10.9044 1.5 10.9119 1.5 10.9194C1.5 10.9268 1.5 10.9343 1.5 10.9418C1.5 10.9492 1.5 10.9567 1.5 10.9641C1.5 10.9715 1.5 10.979 1.5 10.9864C1.5 10.9938 1.5 11.0012 1.5 11.0086C1.5 11.0159 1.5 11.0233 1.5 11.0307C1.5 11.038 1.5 11.0453 1.5 11.0527C1.5 11.06 1.5 11.0673 1.5 11.0746C1.5 11.0819 1.5 11.0892 1.5 11.0964C1.5 11.1037 1.5 11.111 1.5 11.1182C1.5 11.1254 1.5 11.1327 1.5 11.1399C1.5 11.1471 1.5 11.1543 1.5 11.1615C1.5 11.1687 1.5 11.1758 1.5 11.183C1.5 11.1901 1.5 11.1973 1.5 11.2044C1.5 11.2115 1.5 11.2186 1.5 11.2257C1.5 11.2328 1.5 11.2399 1.5 11.247C1.5 11.254 1.5 11.2611 1.5 11.2681C1.5 11.2751 1.5 11.2822 1.5 11.2892C1.5 11.2962 1.5 11.3032 1.5 11.3101C1.5 11.3171 1.5 11.3241 1.5 11.331C1.5 11.338 1.5 11.3449 1.5 11.3518C1.5 11.3587 1.5 11.3656 1.5 11.3725C1.5 11.3794 1.5 11.3862 1.5 11.3931C1.5 11.3999 1.5 11.4068 1.5 11.4136C1.5 11.4204 1.5 11.4272 1.5 11.434C1.5 11.4408 1.5 11.4475 1.5 11.4543C1.5 11.461 1.5 11.4678 1.5 11.4745C1.5 11.4812 1.5 11.4879 1.5 11.4946C1.5 11.5013 1.5 11.508 1.5 11.5146C1.5 11.5213 1.5 11.5279 1.5 11.5345C1.5 11.5411 1.5 11.5477 1.5 11.5543C1.5 11.5609 1.5 11.5675 1.5 11.574C1.5 11.5806 1.5 11.5871 1.5 11.5937C1.5 11.6002 1.5 11.6067 1.5 11.6132C1.5 11.6196 1.5 11.6261 1.5 11.6326C1.5 11.639 1.5 11.6454 1.5 11.6519C1.5 11.6583 1.5 11.6647 1.5 11.6711C1.5 11.6774 1.5 11.6838 1.5 11.6901C1.5 11.6965 1.5 11.7028 1.5 11.7091C1.5 11.7154 1.5 11.7217 1.5 11.728C1.5 11.7343 1.5 11.7405 1.5 11.7468C1.5 11.753 1.5 11.7592 1.5 11.7654C1.5 11.7716 1.5 11.7778 1.5 11.784C1.5 11.7901 1.5 11.7963 1.5 11.8024C1.5 11.8086 1.5 11.8147 1.5 11.8208C1.5 11.8268 1.5 11.8329 1.5 11.839C1.5 11.845 1.5 11.8511 1.5 11.8571C1.5 11.8631 1.5 11.8691 1.5 11.8751C1.5 11.8811 1.5 11.887 1.5 11.893C1.5 11.8989 1.5 11.9048 1.5 11.9107C1.5 11.9166 1.5 11.9225 1.5 11.9284C1.5 11.9342 1.5 11.9401 1.5 11.9459C1.5 11.9517 1.5 11.9575 1.5 11.9633C1.5 11.9691 1.5 11.9749 1.5 11.9806C1.5 11.9864 1.5 11.9921 1.5 11.9978C1.5 12.0035 1.5 12.0092 1.5 12.0149C1.5 12.0205 1.5 12.0262 1.5 12.0318C1.5 12.0375 1.5 12.0431 1.5 12.0486C1.5 12.0542 1.5 12.0598 1.5 12.0654C1.5 12.0709 1.5 12.0764 1.5 12.0819C1.5 12.0874 1.5 12.0929 1.5 12.0984C1.5 12.1039 1.5 12.1093 1.5 12.1147C1.5 12.1202 1.5 12.1256 1.5 12.1309C1.5 12.1363 1.5 12.1417 1.5 12.147C1.5 12.1524 1.5 12.1577 1.5 12.163C1.5 12.1683 1.5 12.1736 1.5 12.1788C1.5 12.1841 1.5 12.1893 1.5 12.1945C1.5 12.1998 1.5 12.205 1.5 12.2101C1.5 12.2153 1.5 12.2205 1.5 12.2256C1.5 12.2307 1.5 12.2358 1.5 12.2409C1.5 12.246 1.5 12.2511 1.5 12.2561C1.5 12.2612 1.5 12.2662 1.5 12.2712C1.5 12.2762 1.5 12.2812 1.5 12.2861C1.5 12.2911 1.5 12.296 1.5 12.3009C1.5 12.3058 1.5 12.3107 1.5 12.3156C1.5 12.3204 1.5 12.3253 1.5 12.3301C1.5 12.3349 1.5 12.3397 1.5 12.3445C1.5 12.3493 1.5 12.354 1.5 12.3588C1.5 12.3635 1.5 12.3682 1.5 12.3729C1.5 12.3776 1.5 12.3823 1.5 12.3869C1.5 12.3916 1.5 12.3962 1.5 12.4008C1.5 12.4054 1.5 12.4099 1.5 12.4145C1.5 12.419 1.5 12.4236 1.5 12.4281C1.5 12.4326 1.5 12.4371 1.5 12.4415C1.5 12.446 1.5 12.4504 1.5 12.4548C1.5 12.4592 1.5 12.4636 1.5 12.468C1.5 12.4723 1.5 12.4767 1.5 12.481C1.5 12.4853 1.5 12.4896 1.5 12.4939C1.5 12.4981 1.5 12.5024 1.5 12.5066C1.5 12.5108 1.5 12.515 1.5 12.5192C1.5 12.5234 1.5 12.5275 1.5 12.5316C1.5 12.5358 1.5 12.5399 1.5 12.5439C1.5 12.548 1.5 12.5521 1.5 12.5561C1.5 12.5601 1.5 12.5641 1.5 12.5681C1.5 12.5721 1.5 12.576 1.5 12.58C1.5 12.5839 1.5 12.5878 1.5 12.5917C1.5 12.5955 1.5 12.5994 1.5 12.6032C1.5 12.6071 1.5 12.6109 1.5 12.6146C1.5 12.6184 1.5 12.6222 1.5 12.6259C1.5 12.6296 1.5 12.6333 1.5 12.637C1.5 12.6407 1.5 12.6443 1.5 12.648C1.5 12.6516 1.5 12.6552 1.5 12.6588C1.5 12.6624 1.5 12.6659 1.5 12.6694C1.5 12.673 1.5 12.6765 1.5 12.6799C1.5 12.6834 1.5 12.6869 1.5 12.6903C1.5 12.6937 1.5 12.6971 1.5 12.7005C1.5 12.7038 1.5 12.7072 1.5 12.7105C1.5 12.7138 1.5 12.7171 1.5 12.7204C1.5 12.7236 1.5 12.7269 1.5 12.7301C1.5 12.7333 1.5 12.7365 1.5 12.7396C1.5 12.7428 1.5 12.7459 1.5 12.749C1.5 12.7522 1.5 12.7552 1.5 12.7583C1.5 12.7613 1.5 12.7644 1.5 12.7674C1.5 12.7704 1.5 12.7733 1.5 12.7763C1.5 12.7792 1.5 12.7821 1.5 12.785C1.5 12.7879 1.5 12.7908 1.5 12.7936C1.5 12.7965 1.5 12.7993 1.5 12.8021C1.5 12.8048 1.5 12.8076 1.5 12.8103C1.5 12.813 1.5 12.8157 1.5 12.8184C1.5 12.8211 1.5 12.8237 1.5 12.8264C1.5 12.829 1.5 12.8316 1.5 12.8341C1.5 12.8367 1.5 12.8392 1.5 12.8417C1.5 12.8442 1.5 12.8467 1.5 12.8491C1.5 12.8516 1.5 12.854 1.5 12.8564C1.5 12.8588 1.5 12.8612 1.5 12.8635C1.5 12.8658 1.5 12.8681 1.5 12.8704C1.5 12.8727 1.5 12.8749 1.5 12.8772C1.5 12.8794 1.5 12.8816 1.5 12.8837C1.5 12.8859 1.5 12.888 1.5 12.8902C1.5 12.8923 1.5 12.8943 1.5 12.8964C1.5 12.8984 1.5 12.9005 1.5 12.9024C1.5 12.9044 1.5 12.9064 1.5 12.9083C1.5 12.9103 1.5 12.9122 1.5 12.914C1.5 12.9159 1.5 12.9178 1.5 12.9196C1.5 12.9214 1.5 12.9232 1.5 12.9249C1.5 12.9267 1.5 12.9284 1.5 12.9301C1.5 12.9318 1.5 12.9335 1.5 12.9351C1.5 12.9367 1.5 12.9383 1.5 12.9399C1.5 12.9415 1.5 12.943 1.5 12.9446C1.5 12.9461 1.5 12.9476 1.5 12.949C1.5 12.9505 1.5 12.9519 1.5 12.9533C1.5 12.9547 1.5 12.9561 1.5 12.9574C1.5 12.9587 1.5 12.96 1.5 12.9613C1.5 12.9626 1.5 12.9638 1.5 12.965C1.5 12.9662 1.5 12.9674 1.5 12.9686C1.5 12.9697 1.5 12.9708 1.5 12.9719C1.5 12.973 1.5 12.9741 1.5 12.9751C1.5 12.9761 1.5 12.9771 1.5 12.9781C1.5 12.9791 1.5 12.98 1.5 12.9809C1.5 12.9818 1.5 12.9827 1.5 12.9835C1.5 12.9843 1.5 12.9852 1.5 12.9859C1.5 12.9867 1.5 12.9874 1.5 12.9882C1.5 12.9889 1.5 12.9896 1.5 12.9902C1.5 12.9909 1.5 12.9915 1.5 12.9921C1.5 12.9926 1.5 12.9932 1.5 12.9937C1.5 12.9942 1.5 12.9947 1.5 12.9952C1.5 12.9956 1.5 12.9961 1.5 12.9965C1.5 12.9968 1.5 12.9972 1.5 12.9975C1.5 12.9979 1.5 12.9982 1.5 12.9984C1.5 12.9987 1.5 12.9989 1.5 12.9991C1.5 12.9993 1.5 12.9995 1.5 12.9996C1.5 12.9997 1.5 12.9998 1.5 12.9999C1.5 13 1.5 13 2 13ZM2.5 3.5C2.5 3.27748 2.50107 3.16147 2.51122 3.08549C2.52047 3.01622 2.5251 3.08998 2.44469 3.15685C2.38384 3.20744 2.34539 3.19065 2.46788 3.17933C2.57998 3.16897 2.73981 3.16846 3 3.16846V2.16846C2.76019 2.16846 2.54502 2.16794 2.37587 2.18357C2.21711 2.19824 1.99116 2.23341 1.80531 2.38795C1.5999 2.55876 1.54203 2.78843 1.52003 2.95304C1.49893 3.11093 1.5 3.30675 1.5 3.5H2.5ZM3 3.16846H8V2.16846H3V3.16846Z" fill="#74D414"/>
<path fill-rule="evenodd" clip-rule="evenodd" d="M5.21875 11.4547L7.70608 10.8323C7.82342 10.803 7.93008 10.7423 8.01608 10.6569L13.6094 5.06024C14.1301 4.53927 14.5207 4.08545 14 3.56447L13 2.55909C12.4793 2.03812 12.1301 2.53808 11.6094 3.05906L6.01608 8.6557C5.93075 8.74108 5.87008 8.84848 5.84075 8.96588L5.21875 11.4547Z" stroke="#74D414" stroke-linecap="round" stroke-linejoin="round"/>
<path d="M10.5537 4.11572L12.5537 6.11691" stroke="#74D414" stroke-linecap="round" stroke-linejoin="round"/>
<path d="M8 10.5C8.00933 10.4293 6.14067 8.63957 6.14067 8.63957" stroke="#74D414" stroke-linecap="round" stroke-linejoin="round"/>
</svg>
