<svg width="24" height="24" viewBox="0 0 24 24" fill="none" xmlns="http://www.w3.org/2000/svg">
<mask id="path-1-inside-1_1531_15197" fill="white">
<path fill-rule="evenodd" clip-rule="evenodd" d="M4 8V21.5C4 21.7761 4.22386 22 4.5 22H19.5C19.7761 22 20 21.7761 20 21.5V8"/>
</mask>
<path d="M5.5 8V6.5H2.5V8H5.5ZM21.5 8V6.5H18.5V8H21.5ZM2.5 8V21.5H5.5V8H2.5ZM4.5 23.5H19.5V20.5H4.5V23.5ZM21.5 21.5V8H18.5V21.5H21.5ZM19.5 23.5C20.6046 23.5 21.5 22.6046 21.5 21.5H18.5C18.5 20.9477 18.9477 20.5 19.5 20.5V23.5ZM2.5 21.5C2.5 22.6046 3.39543 23.5 4.5 23.5V20.5C5.05228 20.5 5.5 20.9477 5.5 21.5H2.5Z" fill="white" mask="url(#path-1-inside-1_1531_15197)"/>
<path d="M2 10L11.7133 3.20071C11.8854 3.0802 12.1131 3.07914 12.2852 3.19965C13.5326 4.0728 18.5974 7.61816 22 10" stroke="white" stroke-width="1.5" stroke-linecap="square" stroke-linejoin="round"/>
<path d="M2 10L11.7133 3.20071C11.8854 3.0802 12.1146 3.0802 12.2867 3.20071L22 10" stroke="white" stroke-width="1.5" stroke-linecap="round"/>
<mask id="path-5-inside-2_1531_15197" fill="white">
<path fill-rule="evenodd" clip-rule="evenodd" d="M15.5 22V12.5C15.5 12.2239 15.2767 12 15.0005 12C14.5733 12 13.9108 12 13.1667 12H10.8333C10.0892 12 9.42665 12 8.99948 12C8.72334 12 8.5 12.2239 8.5 12.5V22"/>
</mask>
<path d="M14 22V23.5H17V22H14ZM7 22V23.5H10V22H7ZM17 22V12.5H14V22H17ZM15.0005 10.5C14.5734 10.5 13.9108 10.5 13.1667 10.5V13.5C13.9108 13.5 14.5733 13.5 15.0005 13.5L15.0005 10.5ZM13.1667 10.5H10.8333V13.5H13.1667V10.5ZM10.8333 10.5C10.0892 10.5 9.42664 10.5 8.99946 10.5L8.99949 13.5C9.42666 13.5 10.0892 13.5 10.8333 13.5V10.5ZM7 12.5V22H10V12.5H7ZM8.99946 10.5C7.89288 10.5 7 11.3975 7 12.5H10C10 13.0503 9.55379 13.5 8.99949 13.5L8.99946 10.5ZM17 12.5C17 11.3975 16.1071 10.5 15.0005 10.5L15.0005 13.5C14.4462 13.5 14 13.0503 14 12.5H17Z" fill="white" mask="url(#path-5-inside-2_1531_15197)"/>
</svg>
