<svg width="47" height="9" viewBox="0 0 47 9" fill="none" xmlns="http://www.w3.org/2000/svg">
<path d="M1 4C0.723858 4 0.5 4.22386 0.5 4.5C0.5 4.77614 0.723858 5 1 5V4ZM46.3536 4.85355C46.5488 4.65829 46.5488 4.34171 46.3536 4.14645L43.1716 0.964466C42.9763 0.769204 42.6597 0.769204 42.4645 0.964466C42.2692 1.15973 42.2692 1.47631 42.4645 1.67157L45.2929 4.5L42.4645 7.32843C42.2692 7.52369 42.2692 7.84027 42.4645 8.03553C42.6597 8.2308 42.9763 8.2308 43.1716 8.03553L46.3536 4.85355ZM1 5H46V4H1V5Z" fill="black"/>
</svg>
