<svg width="24" height="21" viewBox="0 0 24 21" fill="none" xmlns="http://www.w3.org/2000/svg">
<path d="M14.3424 8.03169L14.5233 8.49312L15.0187 8.50768L21.752 8.70555L16.484 12.469L16.041 12.7855L16.2047 13.3047L18.0903 19.2875L12.3973 15.7319L12 15.4837L11.6027 15.7319L5.90969 19.2875L7.79531 13.3047L7.95896 12.7855L7.51598 12.469L2.24801 8.70555L8.9813 8.50768L9.4767 8.49312L9.65755 8.03169L12 2.05525L14.3424 8.03169ZM5.33523 19.6463C5.33544 19.6462 5.33565 19.646 5.33586 19.6459L5.33523 19.6463ZM12.2328 1.4614C12.2327 1.46158 12.2326 1.46175 12.2326 1.46193L12.2328 1.4614L12 1.37017L12.2328 1.4614Z" stroke="black" stroke-width="1.5"/>
</svg>
