<svg width="18" height="18" viewBox="0 0 18 18" fill="none" xmlns="http://www.w3.org/2000/svg">
<path d="M6.66183 6.9101C6.78541 7.05446 6.95303 7.08782 7.02516 7.09867C7.02607 7.09903 7.02758 7.09999 7.0307 7.10259C7.0395 7.10993 7.05942 7.13045 7.08397 7.17681C7.13581 7.27473 7.17973 7.43311 7.20324 7.64507C7.23973 7.97402 7.21835 8.34622 7.17494 8.62691C7.15505 8.60144 7.1344 8.57403 7.11303 8.54468C6.79273 8.10469 6.43533 7.40308 6.19811 6.89105C6.08287 6.43514 5.69428 6.15086 5.24102 6.15086H3.86459C3.73473 6.15086 3.55588 6.16516 3.39415 6.24847C3.30675 6.29349 3.21428 6.36397 3.14494 6.47111C3.07421 6.58043 3.04474 6.70148 3.04474 6.81831C3.04474 6.90289 3.06606 6.98124 3.07726 7.02035C3.09194 7.07161 3.11141 7.12765 3.13311 7.18494C3.17678 7.30026 3.23793 7.44277 3.31188 7.60306C3.46031 7.92482 3.66895 8.33694 3.91489 8.78124C4.40314 9.66326 5.0576 10.707 5.7 11.4264L5.69993 11.4264L5.70615 11.4331C6.37597 12.1532 7.06282 12.4979 7.70936 12.6546C8.25236 12.7862 8.76217 12.7812 9.14648 12.7775C9.20664 12.7769 9.26372 12.7763 9.31737 12.7763C9.55472 12.7763 9.77413 12.6652 9.90446 12.5309L9.58207 12.218L9.90446 12.5309C10.0347 12.3967 10.1372 12.1769 10.1372 11.9453C10.1372 11.7513 10.1552 11.5995 10.1823 11.4917C10.1838 11.4858 10.1853 11.4801 10.1868 11.4746C10.2093 11.4939 10.2356 11.5183 10.2655 11.5491C10.3962 11.6837 10.5048 11.8078 10.6102 11.9283C10.6251 11.9453 10.6399 11.9622 10.6547 11.9791C10.7699 12.1104 10.8922 12.2477 11.0268 12.3653C11.3274 12.6281 11.6708 12.7763 12.1761 12.7763H13.6055C13.8161 12.7763 14.0442 12.7489 14.229 12.6278C14.4455 12.4859 14.5231 12.2731 14.5306 12.0852C14.5513 11.8725 14.4818 11.6727 14.4112 11.5233C14.3324 11.3563 14.2212 11.1886 14.1017 11.032C13.8626 10.7185 13.5525 10.4 13.2782 10.1456C13.253 10.1214 13.229 10.0985 13.2061 10.0767C13.0534 9.93085 12.9521 9.83412 12.8803 9.75267C12.8574 9.72676 12.8421 9.70725 12.832 9.69337C12.837 9.68312 12.8438 9.67012 12.8531 9.65408C12.9076 9.55964 13.0029 9.4313 13.1662 9.22099L13.168 9.21872C13.2089 9.16529 13.2512 9.11044 13.2942 9.05447C13.6542 8.58671 14.0741 8.04108 14.3125 7.59643C14.3813 7.46796 14.4428 7.33419 14.4838 7.20218C14.5232 7.07524 14.5547 6.91558 14.528 6.74955C14.498 6.56324 14.3968 6.38949 14.2164 6.2771C14.0559 6.17705 13.8728 6.15086 13.7114 6.15086H11.9644C11.8333 6.15086 11.7007 6.17354 11.5758 6.23376C11.4486 6.29504 11.3553 6.38267 11.2867 6.47452C11.1891 6.60528 11.1249 6.77852 11.0863 6.88261C11.0804 6.89845 11.0751 6.91269 11.0704 6.92494C10.8695 7.41562 10.5675 7.98489 10.2838 8.39791C10.2371 8.46581 10.1927 8.52693 10.151 8.58113C10.1506 8.5583 10.1505 8.53431 10.1505 8.50911C10.1505 8.34543 10.1577 8.15603 10.1663 7.93056C10.1675 7.89853 10.1687 7.86578 10.17 7.83227C10.1794 7.58254 10.189 7.29903 10.1901 6.9864C10.2604 6.67335 10.1481 6.37463 9.9574 6.17814C9.83132 6.04825 9.58336 5.84676 9.26624 5.82545C9.01715 5.77412 8.72106 5.71453 8.4174 5.71453C7.856 5.71453 7.36746 5.83511 7.05143 5.98077C6.97113 6.01778 6.89347 6.06029 6.82516 6.1086C6.76541 6.15086 6.67607 6.22283 6.61411 6.32986C6.58105 6.38697 6.54324 6.4758 6.54297 6.58803C6.54267 6.71025 6.5873 6.82304 6.66183 6.9101ZM10.1925 8.94146C10.1925 8.94148 10.1923 8.94108 10.1919 8.9402L10.1925 8.94146ZM7.33804 6.84682C7.33794 6.84681 7.33915 6.84574 7.34198 6.84367C7.33956 6.8458 7.33815 6.84683 7.33804 6.84682ZM8.95177 17.5502H8.95172C4.21983 17.4983 0.450539 13.7158 0.449276 9.00236C0.500855 4.23534 4.42418 0.399303 9.20408 0.449768C13.8763 0.554664 17.6006 4.43848 17.5502 9.15883C17.5 13.8712 13.6297 17.602 8.95177 17.5502Z" fill="black" stroke="black" stroke-width="0.898551"/>
</svg>
